<?xml version="1.0" standalone="no"?>
<!DOCTYPE svg PUBLIC "-//W3C//DTD SVG 20010904//EN"
 "http://www.w3.org/TR/2001/REC-SVG-20010904/DTD/svg10.dtd">
<svg version="1.0" xmlns="http://www.w3.org/2000/svg"
 width="600.000000pt" height="600.000000pt" viewBox="0 0 600.000000 600.000000"
 preserveAspectRatio="xMidYMid meet">
<metadata>
Created by potrace 1.14, written by Peter Selinger 2001-2017
</metadata>
<g transform="translate(0.000000,600.000000) scale(0.100000,-0.100000)"
fill="#000000" stroke="none">
<path d="M2289 5466 c-2 -2 -65 -7 -139 -11 -290 -13 -327 -15 -400 -20 -115
-7 -265 -15 -370 -20 -171 -9 -184 -18 -184 -128 0 -64 8 -227 19 -406 3 -35
7 -120 10 -190 4 -69 8 -157 10 -196 3 -38 7 -117 10 -175 3 -58 7 -143 10
-190 2 -47 7 -132 10 -190 7 -127 14 -259 20 -360 2 -41 7 -129 10 -195 2 -66
7 -151 10 -190 3 -38 7 -122 10 -185 3 -63 8 -151 10 -195 5 -85 12 -222 20
-370 3 -49 7 -133 10 -185 3 -52 7 -135 10 -185 11 -224 16 -305 20 -370 2
-38 7 -126 10 -195 3 -69 8 -152 10 -185 4 -59 14 -249 20 -375 3 -61 14 -274
20 -365 5 -95 36 -119 143 -110 37 3 114 7 172 10 102 5 227 11 380 20 41 2
134 7 205 11 72 4 146 8 165 9 19 2 50 3 68 4 21 1 42 10 59 27 l25 26 -6 176
c-4 97 -9 202 -11 232 -2 30 -6 118 -10 195 -3 77 -8 160 -10 185 -2 25 -7 99
-10 165 -11 218 -15 297 -30 573 l-6 102 505 0 c398 0 506 -3 507 -12 0 -7 0
-382 0 -833 1 -894 -2 -854 57 -876 21 -8 860 -15 1088 -10 12 1 33 13 48 27
l26 27 0 2419 0 2419 -25 24 c-16 17 -36 25 -62 26 -21 1 -265 2 -543 3 -558
2 -561 1 -579 -58 -6 -19 -10 -388 -10 -946 0 -503 0 -922 -1 -931 0 -15 -47
-17 -540 -17 l-540 1 -1 56 c-1 31 -2 70 -4 86 -2 26 -9 145 -20 365 -7 125
-16 296 -20 370 -2 41 -7 125 -10 185 -12 239 -16 303 -20 370 -2 39 -7 133
-11 210 -4 77 -8 156 -9 175 -2 19 -3 54 -4 77 -1 53 -32 90 -82 97 -20 3 -38
4 -40 2z"/>
</g>
</svg>
